<svg width="64" height="20" viewBox="0 0 64 20" xmlns="http://www.w3.org/2000/svg">
  <defs>
    <linearGradient id="g" x1="0%" y1="0%" x2="100%" y2="100%">
      <stop offset="0%" stop-color="#a58cff"/>
      <stop offset="100%" stop-color="#5ab1ff"/>
    </linearGradient>
  </defs>
  <rect x="0" y="0" width="64" height="20" rx="6" fill="rgba(255,255,255,0.08)"/>
  <g fill="url(#g)" transform="translate(8,4)">
    <path d="M0 2.5C0 1.12 1.12 0 2.5 0H7c3.31 0 6 2.69 6 6s-2.69 6-6 6H2.5C1.12 12 0 10.88 0 9.5V2.5zm2.5-.5A2 2 0 0 0 .5 4.5v5A2 2 0 0 0 2.5 11H7a5 5 0 0 0 0-10H2.5z"/>
    <path d="M18 .5h3.25c2.76 0 5 2.24 5 5v1c0 2.76-2.24 5-5 5H18V.5zm2 2V9.5h1.25c1.66 0 3-1.34 3-3v-1c0-1.66-1.34-3-3-3H20.5z"/>
  </g>
</svg>

